<?xml version="1.0" encoding="iso-8859-1"?>
<!-- Generator: Adobe Illustrator 19.0.0, SVG Export Plug-In . SVG Version: 6.00 Build 0)  -->
<svg version="1.1" id="Layer_1" xmlns="http://www.w3.org/2000/svg" xmlns:xlink="http://www.w3.org/1999/xlink" x="0px" y="0px"
	 viewBox="0 0 511.835 511.835" style="enable-background:new 0 0 511.835 511.835;" xml:space="preserve">
<circle style="fill:#FF873D;" cx="255.918" cy="255.918" r="255.918"/>
<path style="fill:#E37936;" d="M511.67,267.453c-6.097,135.951-118.154,244.382-255.753,244.382c-5.768,0-11.37-0.165-16.973-0.659
	L98.05,370.281l315.736-200.878l97.885,97.885V267.453z"/>
<rect x="98.05" y="169.568" style="fill:#F7C600;" width="315.736" height="200.878"/>
<path style="fill:#FFD630;" d="M98.05,169.568h315.736L255.918,72.507L98.05,169.568z"/>
<path style="fill:#FFFFFF;" d="M143.037,133.644h225.761c11.7,0,21.258,9.558,21.258,21.258v215.544H121.779V154.902
	C121.779,143.202,131.337,133.644,143.037,133.644z"/>
<path style="fill:#FFD630;" d="M98.05,169.568l154.407,100.521L98.05,370.611V169.733V169.568z"/>
<path style="fill:#F5C918;" d="M98.05,370.446h315.736L255.918,269.925L98.05,370.446z"/>
<path style="fill:#FFD630;" d="M413.786,169.568L259.378,270.089l154.407,100.521V169.733V169.568z"/>
<path style="fill:#00CC96;" d="M255.918,144.191c50.755,0,91.952,18.456,91.952,41.362c0,18.127-26.201,33.617-62.62,39.22
	c-3.131,10.876-11.865,21.587-28.509,30.816c8.404-10.382,7.58-21.093,5.273-28.838c-1.977,0-4.12,0.165-6.097,0.165
	c-50.755,0-91.952-18.456-91.952-41.362C163.965,162.812,205.163,144.191,255.918,144.191z"/>
<path style="fill:#FFFFFF;" d="M224.443,190.826c0,2.637-0.659,4.944-1.648,6.756c-1.154,1.813-2.801,3.296-5.108,4.285
	c-2.307,0.989-4.944,1.483-8.239,1.483c-3.131,0-5.768-0.494-7.91-1.648c-2.142-0.989-3.79-2.307-4.779-3.955
	s-1.483-3.131-1.483-4.779c0-0.989,0.33-1.977,0.989-2.637c0.659-0.824,1.483-1.154,2.472-1.154c0.824,0,1.648,0.33,2.142,0.824
	c0.494,0.494,0.989,1.154,1.318,2.142c0.824,1.648,1.977,2.966,3.131,3.79c1.154,0.824,2.966,1.318,4.944,1.318
	c1.648,0,3.131-0.494,4.12-1.318c1.154-0.824,1.648-1.813,1.648-2.966c0-1.648-0.494-2.966-1.648-3.625
	c-1.154-0.824-2.966-1.483-5.603-2.142c-2.966-0.824-5.273-1.648-7.251-2.637c-1.813-0.824-3.296-2.142-4.449-3.625
	c-1.154-1.483-1.648-3.296-1.648-5.438c0-1.977,0.494-3.79,1.483-5.438c0.989-1.648,2.472-3.131,4.449-4.12
	c1.977-0.989,4.449-1.483,7.251-1.483c2.142,0,4.285,0.33,5.932,0.824c1.813,0.494,3.296,1.154,4.449,2.142
	c1.154,0.824,2.142,1.813,2.637,2.966c0.659,0.989,0.989,2.142,0.989,3.131c0,1.154-0.33,1.977-0.989,2.637
	c-0.659,0.659-1.648,0.989-2.801,0.989c-0.824,0-1.648-0.33-2.307-0.824c-0.659-0.494-1.318-1.483-2.142-2.472
	c-0.659-0.989-1.483-1.648-2.307-2.307c-0.824-0.494-2.142-0.824-3.625-0.824c-1.483,0-2.801,0.33-3.79,1.154
	s-1.483,1.648-1.483,2.801c0,0.989,0.33,1.813,1.154,2.472c0.824,0.659,1.813,1.154,2.966,1.648
	c1.318,0.494,2.966,0.989,5.273,1.483c2.637,0.659,4.779,1.648,6.427,2.637c1.648,0.989,2.966,2.142,3.79,3.625
	c0.824,1.318,1.318,2.966,1.318,4.779L224.443,190.826z M260.037,184.564v12.854c0,1.977-0.33,3.461-1.154,4.614
	c-0.824,0.989-1.813,1.483-3.296,1.483c-1.318,0-2.307-0.494-3.131-1.483s-1.154-2.472-1.154-4.614v-15.325
	c0-2.472,0-4.285-0.165-5.603s-0.494-2.472-1.154-3.296c-0.659-0.824-1.648-1.318-3.131-1.318c-2.801,0-4.614,1.154-5.603,3.296
	c-0.824,2.142-1.318,5.273-1.318,9.228v13.018c0,1.977-0.33,3.461-1.154,4.614c-0.824,0.989-1.813,1.483-3.131,1.483
	s-2.307-0.494-3.131-1.483c-0.824-0.989-1.318-2.472-1.318-4.614v-27.52c0-1.813,0.33-3.131,1.154-4.12
	c0.659-0.989,1.648-1.483,2.966-1.483c1.154,0,2.142,0.494,2.966,1.318s1.154,2.142,1.154,3.625v0.989
	c1.483-1.977,3.131-3.461,4.779-4.449s3.625-1.483,5.603-1.483c2.142,0,3.955,0.494,5.603,1.483c1.483,0.989,2.801,2.472,3.79,4.285
	c1.483-1.977,2.966-3.461,4.614-4.449s3.461-1.483,5.438-1.483c2.307,0,4.285,0.494,6.097,1.483c1.648,0.989,2.966,2.472,3.79,4.449
	c0.659,1.813,1.154,4.449,1.154,8.239v18.786c0,1.977-0.33,3.461-1.154,4.614c-0.824,0.989-1.813,1.483-3.296,1.483
	c-1.318,0-2.307-0.494-3.131-1.483s-1.318-2.472-1.318-4.614v-16.149c0-2.142,0-3.79-0.165-4.944
	c-0.165-1.318-0.659-2.307-1.318-3.131c-0.659-0.824-1.813-1.318-3.131-1.318c-1.154,0-2.142,0.33-3.296,1.154
	c-0.989,0.824-1.813,1.813-2.307,2.966c-0.659,1.648-0.989,4.449-0.989,8.569L260.037,184.564z M315.901,190.826
	c0,2.637-0.659,4.944-1.648,6.756c-1.154,1.813-2.801,3.296-5.108,4.285c-2.307,0.989-4.944,1.483-8.239,1.483
	c-3.131,0-5.768-0.494-7.91-1.648c-2.142-0.989-3.79-2.307-4.779-3.955s-1.483-3.131-1.483-4.779c0-0.989,0.33-1.977,0.989-2.637
	c0.659-0.824,1.483-1.154,2.472-1.154c0.824,0,1.648,0.33,2.142,0.824c0.494,0.494,0.989,1.154,1.318,2.142
	c0.824,1.648,1.977,2.966,3.131,3.79c1.154,0.824,2.966,1.318,4.944,1.318c1.648,0,3.131-0.494,4.12-1.318
	c1.154-0.824,1.648-1.813,1.648-2.966c0-1.648-0.494-2.966-1.648-3.625c-1.154-0.824-2.966-1.483-5.603-2.142
	c-2.966-0.824-5.273-1.648-7.251-2.637c-1.813-0.824-3.296-2.142-4.449-3.625c-1.154-1.483-1.648-3.296-1.648-5.438
	c0-1.977,0.494-3.79,1.483-5.438s2.472-3.131,4.449-4.12c1.977-0.989,4.449-1.483,7.251-1.483c2.142,0,4.285,0.33,5.932,0.824
	c1.813,0.494,3.296,1.154,4.449,2.142c1.154,0.824,2.142,1.813,2.637,2.966c0.659,0.989,0.989,2.142,0.989,3.131
	c0,1.154-0.33,1.977-0.989,2.637c-0.659,0.659-1.648,0.989-2.801,0.989c-0.824,0-1.648-0.33-2.307-0.824
	c-0.659-0.494-1.318-1.483-2.142-2.472c-0.659-0.989-1.483-1.648-2.307-2.307c-0.824-0.494-2.142-0.824-3.625-0.824
	s-2.801,0.33-3.79,1.154s-1.483,1.648-1.483,2.801c0,0.989,0.33,1.813,1.154,2.472c0.824,0.659,1.813,1.154,2.966,1.648
	c1.318,0.494,2.966,0.989,5.273,1.483c2.637,0.659,4.779,1.648,6.427,2.637c1.648,0.989,2.966,2.142,3.79,3.625
	c0.824,1.318,1.318,2.966,1.318,4.779L315.901,190.826z"/>
<g>
</g>
<g>
</g>
<g>
</g>
<g>
</g>
<g>
</g>
<g>
</g>
<g>
</g>
<g>
</g>
<g>
</g>
<g>
</g>
<g>
</g>
<g>
</g>
<g>
</g>
<g>
</g>
<g>
</g>
</svg>
